<svg xmlns="http://www.w3.org/2000/svg" xmlns:xlink="http://www.w3.org/1999/xlink" width="1920" zoomAndPan="magnify" viewBox="0 0 1440 809.999993" height="1080" preserveAspectRatio="xMidYMid meet" version="1.0"><defs><g/></defs><g fill="#e1d8d8" fill-opacity="1"><g transform="translate(-6.275709, 542.489426)"><g><path d="M 20.59375 -2.828125 C 25.476562 -2.828125 29.660156 -4.566406 33.140625 -8.046875 C 36.617188 -11.523438 38.453125 -15.707031 38.640625 -20.59375 L 38.640625 -178.5625 C 38.078125 -183.070312 36.101562 -186.878906 32.71875 -189.984375 C 29.332031 -193.085938 25.289062 -194.640625 20.59375 -194.640625 L 17.203125 -194.640625 L 16.921875 -197.46875 L 99.578125 -197.46875 C 105.410156 -197.46875 111.757812 -198.03125 118.625 -199.15625 C 125.488281 -200.28125 130.328125 -201.410156 133.140625 -202.546875 L 133.140625 -167 L 130.328125 -167 L 130.328125 -172.078125 C 130.328125 -176.585938 128.773438 -180.441406 125.671875 -183.640625 C 122.566406 -186.835938 118.851562 -188.53125 114.53125 -188.71875 L 56.984375 -188.71875 L 56.984375 -101.546875 L 104.65625 -101.546875 C 108.414062 -101.734375 111.613281 -103.144531 114.25 -105.78125 C 116.882812 -108.414062 118.203125 -111.707031 118.203125 -115.65625 L 118.203125 -119.609375 L 121.015625 -119.609375 L 121.015625 -75.03125 L 118.203125 -75.03125 L 118.203125 -79.265625 C 118.203125 -83.023438 116.929688 -86.222656 114.390625 -88.859375 C 111.847656 -91.492188 108.695312 -92.90625 104.9375 -93.09375 L 56.984375 -93.09375 L 56.984375 -8.75 L 97.328125 -8.75 C 111.242188 -8.75 121.867188 -11.847656 129.203125 -18.046875 C 136.535156 -24.253906 142.644531 -33.472656 147.53125 -45.703125 L 150.359375 -45.703125 L 134 0 L 16.921875 0 L 16.921875 -2.828125 Z M 20.59375 -2.828125 "/></g></g></g><g fill="#e1d8d8" fill-opacity="1"><g transform="translate(211.504485, 542.489426)"><g><path d="M 20.59375 -2.828125 C 25.476562 -2.828125 29.660156 -4.566406 33.140625 -8.046875 C 36.617188 -11.523438 38.453125 -15.707031 38.640625 -20.59375 L 38.640625 -176.875 C 38.453125 -181.757812 36.617188 -185.941406 33.140625 -189.421875 C 29.660156 -192.898438 25.476562 -194.640625 20.59375 -194.640625 L 16.921875 -194.640625 L 16.921875 -197.46875 L 78.703125 -197.46875 L 78.703125 -194.640625 L 75.03125 -194.640625 C 68.257812 -194.640625 63.085938 -191.726562 59.515625 -185.90625 C 57.828125 -183.082031 56.984375 -180.070312 56.984375 -176.875 L 56.984375 -8.75 L 97.328125 -8.75 C 111.242188 -8.75 121.867188 -11.847656 129.203125 -18.046875 C 136.535156 -24.253906 142.644531 -33.472656 147.53125 -45.703125 L 150.359375 -45.703125 L 134 0 L 16.921875 0 L 16.921875 -2.828125 Z M 20.59375 -2.828125 "/></g></g></g><g fill="#e1d8d8" fill-opacity="1"><g transform="translate(425.053278, 542.489426)"><g/></g></g><g fill="#e1d8d8" fill-opacity="1"><g transform="translate(550.587818, 542.489426)"><g><path d="M 75.03125 -188.71875 L 56.984375 -188.71875 L 56.984375 -20.59375 C 56.984375 -15.707031 58.722656 -11.523438 62.203125 -8.046875 C 65.679688 -4.566406 69.957031 -2.828125 75.03125 -2.828125 L 78.421875 -2.828125 L 78.703125 0 L 16.921875 0 L 16.921875 -2.828125 L 20.59375 -2.828125 C 25.476562 -2.828125 29.660156 -4.515625 33.140625 -7.890625 C 36.617188 -11.273438 38.453125 -15.414062 38.640625 -20.3125 L 38.640625 -176.875 C 38.453125 -181.757812 36.617188 -185.941406 33.140625 -189.421875 C 29.660156 -192.898438 25.476562 -194.640625 20.59375 -194.640625 L 16.921875 -194.640625 L 16.921875 -197.46875 L 93.09375 -197.46875 C 110.207031 -197.46875 123.648438 -192.71875 133.421875 -183.21875 C 143.203125 -173.71875 148.09375 -161.398438 148.09375 -146.265625 C 148.09375 -131.128906 143.4375 -118.054688 134.125 -107.046875 C 124.820312 -96.046875 113.492188 -90.546875 100.140625 -90.546875 C 102.960938 -89.234375 106.300781 -86.648438 110.15625 -82.796875 C 114.007812 -78.941406 117.441406 -74.945312 120.453125 -70.8125 C 136.628906 -47.675781 147.160156 -33.425781 152.046875 -28.0625 C 156.941406 -22.707031 160.421875 -19.039062 162.484375 -17.0625 C 164.554688 -15.09375 166.8125 -13.164062 169.25 -11.28125 C 171.695312 -9.40625 174.144531 -7.898438 176.59375 -6.765625 C 182.039062 -4.140625 187.867188 -2.828125 194.078125 -2.828125 L 194.078125 0 L 178.5625 0 C 170.476562 0 162.957031 -1.457031 156 -4.375 C 149.039062 -7.289062 143.820312 -10.296875 140.34375 -13.390625 C 136.863281 -16.492188 133.851562 -19.503906 131.3125 -22.421875 C 128.769531 -25.335938 121.765625 -35.070312 110.296875 -51.625 C 98.828125 -68.175781 92.148438 -77.625 90.265625 -79.96875 C 88.390625 -82.320312 86.414062 -84.628906 84.34375 -86.890625 C 78.320312 -93.273438 72.304688 -96.46875 66.296875 -96.46875 L 66.296875 -99.296875 C 67.796875 -99.109375 69.769531 -99.015625 72.21875 -99.015625 C 74.664062 -99.015625 77.675781 -99.109375 81.25 -99.296875 C 104.5625 -99.859375 119.226562 -109.640625 125.25 -128.640625 C 126.375 -132.398438 126.9375 -135.925781 126.9375 -139.21875 C 126.9375 -142.507812 126.9375 -144.625 126.9375 -145.5625 C 126.5625 -158.15625 123.269531 -168.304688 117.0625 -176.015625 C 110.863281 -183.734375 102.5 -187.875 91.96875 -188.4375 C 87.445312 -188.625 81.800781 -188.71875 75.03125 -188.71875 Z M 75.03125 -188.71875 "/></g></g></g><g fill="#e1d8d8" fill-opacity="1"><g transform="translate(796.577729, 542.489426)"><g><path d="M 20.59375 -2.828125 C 25.476562 -2.828125 29.660156 -4.566406 33.140625 -8.046875 C 36.617188 -11.523438 38.453125 -15.707031 38.640625 -20.59375 L 38.640625 -178.5625 C 38.078125 -183.070312 36.101562 -186.878906 32.71875 -189.984375 C 29.332031 -193.085938 25.289062 -194.640625 20.59375 -194.640625 L 17.203125 -194.640625 L 16.921875 -197.46875 L 99.578125 -197.46875 C 105.410156 -197.46875 111.757812 -198.03125 118.625 -199.15625 C 125.488281 -200.28125 130.328125 -201.410156 133.140625 -202.546875 L 133.140625 -167 L 130.328125 -167 L 130.328125 -172.078125 C 130.328125 -176.585938 128.773438 -180.441406 125.671875 -183.640625 C 122.566406 -186.835938 118.851562 -188.53125 114.53125 -188.71875 L 56.984375 -188.71875 L 56.984375 -101.546875 L 104.65625 -101.546875 C 108.414062 -101.734375 111.613281 -103.144531 114.25 -105.78125 C 116.882812 -108.414062 118.203125 -111.707031 118.203125 -115.65625 L 118.203125 -119.609375 L 121.015625 -119.609375 L 121.015625 -75.03125 L 118.203125 -75.03125 L 118.203125 -79.265625 C 118.203125 -83.023438 116.929688 -86.222656 114.390625 -88.859375 C 111.847656 -91.492188 108.695312 -92.90625 104.9375 -93.09375 L 56.984375 -93.09375 L 56.984375 -8.75 L 97.328125 -8.75 C 111.242188 -8.75 121.867188 -11.847656 129.203125 -18.046875 C 136.535156 -24.253906 142.644531 -33.472656 147.53125 -45.703125 L 150.359375 -45.703125 L 134 0 L 16.921875 0 L 16.921875 -2.828125 Z M 20.59375 -2.828125 "/></g></g></g><g fill="#e1d8d8" fill-opacity="1"><g transform="translate(1014.357948, 542.489426)"><g><path d="M 201.984375 -2.828125 L 204.234375 -2.828125 L 204.234375 0 L 140.765625 0 L 140.765625 -2.828125 L 143.296875 -2.828125 C 147.253906 -2.828125 150.21875 -4.09375 152.1875 -6.625 C 154.164062 -9.164062 155.15625 -11.5625 155.15625 -13.8125 C 155.15625 -16.070312 154.773438 -18.332031 154.015625 -20.59375 L 135.96875 -68.546875 L 59.796875 -68.546875 L 40.90625 -20.3125 C 40.15625 -18.050781 39.78125 -15.835938 39.78125 -13.671875 C 39.78125 -11.515625 40.765625 -9.164062 42.734375 -6.625 C 44.710938 -4.09375 47.675781 -2.828125 51.625 -2.828125 L 54.15625 -2.828125 L 54.15625 0 L -2.546875 0 L -2.546875 -2.828125 L 0 -2.828125 C 4.695312 -2.828125 9.300781 -4.328125 13.8125 -7.328125 C 18.332031 -10.335938 22.003906 -14.757812 24.828125 -20.59375 L 88.578125 -172.359375 C 95.535156 -187.585938 99.015625 -197.273438 99.015625 -201.421875 L 101.546875 -201.421875 L 177.15625 -20.59375 C 179.789062 -14.757812 183.363281 -10.335938 187.875 -7.328125 C 192.382812 -4.328125 197.085938 -2.828125 201.984375 -2.828125 Z M 63.1875 -77.015625 L 132.578125 -77.015625 L 98.734375 -167.5625 Z M 63.1875 -77.015625 "/></g></g></g><g fill="#e1d8d8" fill-opacity="1"><g transform="translate(1270.221221, 542.489426)"><g><path d="M 20.59375 -2.828125 C 25.476562 -2.828125 29.660156 -4.566406 33.140625 -8.046875 C 36.617188 -11.523438 38.453125 -15.707031 38.640625 -20.59375 L 38.640625 -176.875 C 38.453125 -181.757812 36.617188 -185.941406 33.140625 -189.421875 C 29.660156 -192.898438 25.476562 -194.640625 20.59375 -194.640625 L 16.921875 -194.640625 L 16.921875 -197.46875 L 78.703125 -197.46875 L 78.703125 -194.640625 L 75.03125 -194.640625 C 68.257812 -194.640625 63.085938 -191.726562 59.515625 -185.90625 C 57.828125 -183.082031 56.984375 -180.070312 56.984375 -176.875 L 56.984375 -8.75 L 97.328125 -8.75 C 111.242188 -8.75 121.867188 -11.847656 129.203125 -18.046875 C 136.535156 -24.253906 142.644531 -33.472656 147.53125 -45.703125 L 150.359375 -45.703125 L 134 0 L 16.921875 0 L 16.921875 -2.828125 Z M 20.59375 -2.828125 "/></g></g></g><g fill="#e1d8d8" fill-opacity="1"><g transform="translate(96.388391, 197.466731)"><g><path d="M 22.625 0.328125 C 18.875 0.328125 15.488281 -0.5 12.46875 -2.15625 C 9.457031 -3.820312 7.09375 -6.125 5.375 -9.0625 C 3.664062 -12.007812 2.8125 -15.300781 2.8125 -18.9375 C 2.8125 -22.582031 3.664062 -25.875 5.375 -28.8125 C 7.09375 -31.757812 9.46875 -34.0625 12.5 -35.71875 C 15.53125 -37.382812 18.921875 -38.21875 22.671875 -38.21875 C 25.492188 -38.21875 28.09375 -37.742188 30.46875 -36.796875 C 32.851562 -35.859375 34.875 -34.488281 36.53125 -32.6875 L 33.984375 -30.140625 C 31.023438 -33.140625 27.289062 -34.640625 22.78125 -34.640625 C 19.789062 -34.640625 17.066406 -33.953125 14.609375 -32.578125 C 12.160156 -31.210938 10.238281 -29.335938 8.84375 -26.953125 C 7.457031 -24.566406 6.765625 -21.894531 6.765625 -18.9375 C 6.765625 -15.976562 7.457031 -13.304688 8.84375 -10.921875 C 10.238281 -8.546875 12.160156 -6.671875 14.609375 -5.296875 C 17.066406 -3.929688 19.789062 -3.25 22.78125 -3.25 C 27.332031 -3.25 31.066406 -4.765625 33.984375 -7.796875 L 36.53125 -5.25 C 34.875 -3.445312 32.84375 -2.066406 30.4375 -1.109375 C 28.039062 -0.148438 25.4375 0.328125 22.625 0.328125 Z M 22.625 0.328125 "/></g></g></g><g fill="#e1d8d8" fill-opacity="1"><g transform="translate(159.278489, 197.466731)"><g><path d="M 37.828125 -37.890625 L 37.828125 0 L 33.875 0 L 33.875 -17.484375 L 10.171875 -17.484375 L 10.171875 0 L 6.171875 0 L 6.171875 -37.890625 L 10.171875 -37.890625 L 10.171875 -21 L 33.875 -21 L 33.875 -37.890625 Z M 37.828125 -37.890625 "/></g></g></g><g fill="#e1d8d8" fill-opacity="1"><g transform="translate(227.255706, 197.466731)"><g><path d="M 22.734375 0.328125 C 18.984375 0.328125 15.582031 -0.507812 12.53125 -2.1875 C 9.476562 -3.863281 7.09375 -6.164062 5.375 -9.09375 C 3.664062 -12.019531 2.8125 -15.300781 2.8125 -18.9375 C 2.8125 -22.582031 3.664062 -25.863281 5.375 -28.78125 C 7.09375 -31.707031 9.476562 -34.007812 12.53125 -35.6875 C 15.582031 -37.375 18.984375 -38.21875 22.734375 -38.21875 C 26.484375 -38.21875 29.863281 -37.382812 32.875 -35.71875 C 35.894531 -34.0625 38.269531 -31.757812 40 -28.8125 C 41.726562 -25.875 42.59375 -22.582031 42.59375 -18.9375 C 42.59375 -15.300781 41.726562 -12.007812 40 -9.0625 C 38.269531 -6.125 35.894531 -3.820312 32.875 -2.15625 C 29.863281 -0.5 26.484375 0.328125 22.734375 0.328125 Z M 22.734375 -3.25 C 25.722656 -3.25 28.425781 -3.925781 30.84375 -5.28125 C 33.269531 -6.632812 35.164062 -8.507812 36.53125 -10.90625 C 37.90625 -13.300781 38.59375 -15.976562 38.59375 -18.9375 C 38.59375 -21.894531 37.90625 -24.570312 36.53125 -26.96875 C 35.164062 -29.375 33.269531 -31.253906 30.84375 -32.609375 C 28.425781 -33.960938 25.722656 -34.640625 22.734375 -34.640625 C 19.734375 -34.640625 17.015625 -33.960938 14.578125 -32.609375 C 12.148438 -31.253906 10.238281 -29.375 8.84375 -26.96875 C 7.457031 -24.570312 6.765625 -21.894531 6.765625 -18.9375 C 6.765625 -15.976562 7.457031 -13.300781 8.84375 -10.90625 C 10.238281 -8.507812 12.148438 -6.632812 14.578125 -5.28125 C 17.015625 -3.925781 19.734375 -3.25 22.734375 -3.25 Z M 22.734375 -3.25 "/></g></g></g><g fill="#e1d8d8" fill-opacity="1"><g transform="translate(296.64001, 197.466731)"><g><path d="M 22.625 0.328125 C 18.875 0.328125 15.488281 -0.5 12.46875 -2.15625 C 9.457031 -3.820312 7.09375 -6.125 5.375 -9.0625 C 3.664062 -12.007812 2.8125 -15.300781 2.8125 -18.9375 C 2.8125 -22.582031 3.664062 -25.875 5.375 -28.8125 C 7.09375 -31.757812 9.46875 -34.0625 12.5 -35.71875 C 15.53125 -37.382812 18.921875 -38.21875 22.671875 -38.21875 C 25.492188 -38.21875 28.09375 -37.742188 30.46875 -36.796875 C 32.851562 -35.859375 34.875 -34.488281 36.53125 -32.6875 L 33.984375 -30.140625 C 31.023438 -33.140625 27.289062 -34.640625 22.78125 -34.640625 C 19.789062 -34.640625 17.066406 -33.953125 14.609375 -32.578125 C 12.160156 -31.210938 10.238281 -29.335938 8.84375 -26.953125 C 7.457031 -24.566406 6.765625 -21.894531 6.765625 -18.9375 C 6.765625 -15.976562 7.457031 -13.304688 8.84375 -10.921875 C 10.238281 -8.546875 12.160156 -6.671875 14.609375 -5.296875 C 17.066406 -3.929688 19.789062 -3.25 22.78125 -3.25 C 27.332031 -3.25 31.066406 -4.765625 33.984375 -7.796875 L 36.53125 -5.25 C 34.875 -3.445312 32.84375 -2.066406 30.4375 -1.109375 C 28.039062 -0.148438 25.4375 0.328125 22.625 0.328125 Z M 22.625 0.328125 "/></g></g></g><g fill="#e1d8d8" fill-opacity="1"><g transform="translate(359.530103, 197.466731)"><g><path d="M 22.734375 0.328125 C 18.984375 0.328125 15.582031 -0.507812 12.53125 -2.1875 C 9.476562 -3.863281 7.09375 -6.164062 5.375 -9.09375 C 3.664062 -12.019531 2.8125 -15.300781 2.8125 -18.9375 C 2.8125 -22.582031 3.664062 -25.863281 5.375 -28.78125 C 7.09375 -31.707031 9.476562 -34.007812 12.53125 -35.6875 C 15.582031 -37.375 18.984375 -38.21875 22.734375 -38.21875 C 26.484375 -38.21875 29.863281 -37.382812 32.875 -35.71875 C 35.894531 -34.0625 38.269531 -31.757812 40 -28.8125 C 41.726562 -25.875 42.59375 -22.582031 42.59375 -18.9375 C 42.59375 -15.300781 41.726562 -12.007812 40 -9.0625 C 38.269531 -6.125 35.894531 -3.820312 32.875 -2.15625 C 29.863281 -0.5 26.484375 0.328125 22.734375 0.328125 Z M 22.734375 -3.25 C 25.722656 -3.25 28.425781 -3.925781 30.84375 -5.28125 C 33.269531 -6.632812 35.164062 -8.507812 36.53125 -10.90625 C 37.90625 -13.300781 38.59375 -15.976562 38.59375 -18.9375 C 38.59375 -21.894531 37.90625 -24.570312 36.53125 -26.96875 C 35.164062 -29.375 33.269531 -31.253906 30.84375 -32.609375 C 28.425781 -33.960938 25.722656 -34.640625 22.734375 -34.640625 C 19.734375 -34.640625 17.015625 -33.960938 14.578125 -32.609375 C 12.148438 -31.253906 10.238281 -29.375 8.84375 -26.96875 C 7.457031 -24.570312 6.765625 -21.894531 6.765625 -18.9375 C 6.765625 -15.976562 7.457031 -13.300781 8.84375 -10.90625 C 10.238281 -8.507812 12.148438 -6.632812 14.578125 -5.28125 C 17.015625 -3.925781 19.734375 -3.25 22.734375 -3.25 Z M 22.734375 -3.25 "/></g></g></g><g fill="#e1d8d8" fill-opacity="1"><g transform="translate(428.914408, 197.466731)"><g><path d="M 6.171875 -37.890625 L 10.171875 -37.890625 L 10.171875 -3.46875 L 31.390625 -3.46875 L 31.390625 0 L 6.171875 0 Z M 6.171875 -37.890625 "/></g></g></g><g fill="#e1d8d8" fill-opacity="1"><g transform="translate(484.769139, 197.466731)"><g><path d="M 29.9375 -10.125 L 8.828125 -10.125 L 4.28125 0 L 0.109375 0 L 17.421875 -37.890625 L 21.375 -37.890625 L 38.703125 0 L 34.484375 0 Z M 28.46875 -13.375 L 19.375 -33.71875 L 10.28125 -13.375 Z M 28.46875 -13.375 "/></g></g></g><g fill="#e1d8d8" fill-opacity="1"><g transform="translate(547.550987, 197.466731)"><g><path d="M 13.53125 -34.421875 L 0.21875 -34.421875 L 0.21875 -37.890625 L 30.84375 -37.890625 L 30.84375 -34.421875 L 17.53125 -34.421875 L 17.53125 0 L 13.53125 0 Z M 13.53125 -34.421875 "/></g></g></g><g fill="#e1d8d8" fill-opacity="1"><g transform="translate(602.593945, 197.466731)"><g><path d="M 32.96875 -3.46875 L 32.96875 0 L 6.171875 0 L 6.171875 -37.890625 L 32.15625 -37.890625 L 32.15625 -34.421875 L 10.171875 -34.421875 L 10.171875 -20.953125 L 29.765625 -20.953125 L 29.765625 -17.53125 L 10.171875 -17.53125 L 10.171875 -3.46875 Z M 32.96875 -3.46875 "/></g></g></g><g fill="#e1d8d8" fill-opacity="1"><g transform="translate(662.778143, 197.466731)"><g/></g></g><g fill="#e1d8d8" fill-opacity="1"><g transform="translate(700.936164, 197.466731)"><g><path d="M 13.53125 -34.421875 L 0.21875 -34.421875 L 0.21875 -37.890625 L 30.84375 -37.890625 L 30.84375 -34.421875 L 17.53125 -34.421875 L 17.53125 0 L 13.53125 0 Z M 13.53125 -34.421875 "/></g></g></g><g fill="#e1d8d8" fill-opacity="1"><g transform="translate(755.979121, 197.466731)"><g><path d="M 32.046875 0 L 23.375 -12.171875 C 22.40625 -12.066406 21.394531 -12.015625 20.34375 -12.015625 L 10.171875 -12.015625 L 10.171875 0 L 6.171875 0 L 6.171875 -37.890625 L 20.34375 -37.890625 C 25.1875 -37.890625 28.976562 -36.734375 31.71875 -34.421875 C 34.457031 -32.109375 35.828125 -28.929688 35.828125 -24.890625 C 35.828125 -21.929688 35.078125 -19.429688 33.578125 -17.390625 C 32.085938 -15.359375 29.953125 -13.890625 27.171875 -12.984375 L 36.421875 0 Z M 20.25 -15.421875 C 24 -15.421875 26.863281 -16.25 28.84375 -17.90625 C 30.832031 -19.570312 31.828125 -21.898438 31.828125 -24.890625 C 31.828125 -27.960938 30.832031 -30.316406 28.84375 -31.953125 C 26.863281 -33.597656 24 -34.421875 20.25 -34.421875 L 10.171875 -34.421875 L 10.171875 -15.421875 Z M 20.25 -15.421875 "/></g></g></g><g fill="#e1d8d8" fill-opacity="1"><g transform="translate(819.085704, 197.466731)"><g><path d="M 29.9375 -10.125 L 8.828125 -10.125 L 4.28125 0 L 0.109375 0 L 17.421875 -37.890625 L 21.375 -37.890625 L 38.703125 0 L 34.484375 0 Z M 28.46875 -13.375 L 19.375 -33.71875 L 10.28125 -13.375 Z M 28.46875 -13.375 "/></g></g></g><g fill="#e1d8d8" fill-opacity="1"><g transform="translate(881.867577, 197.466731)"><g><path d="M 6.171875 -37.890625 L 21.59375 -37.890625 C 25.601562 -37.890625 29.140625 -37.085938 32.203125 -35.484375 C 35.273438 -33.878906 37.65625 -31.640625 39.34375 -28.765625 C 41.039062 -25.898438 41.890625 -22.625 41.890625 -18.9375 C 41.890625 -15.257812 41.039062 -11.984375 39.34375 -9.109375 C 37.65625 -6.242188 35.273438 -4.007812 32.203125 -2.40625 C 29.140625 -0.800781 25.601562 0 21.59375 0 L 6.171875 0 Z M 21.375 -3.46875 C 24.695312 -3.46875 27.601562 -4.125 30.09375 -5.4375 C 32.582031 -6.757812 34.507812 -8.582031 35.875 -10.90625 C 37.25 -13.226562 37.9375 -15.90625 37.9375 -18.9375 C 37.9375 -21.96875 37.25 -24.644531 35.875 -26.96875 C 34.507812 -29.300781 32.582031 -31.125 30.09375 -32.4375 C 27.601562 -33.757812 24.695312 -34.421875 21.375 -34.421875 L 10.171875 -34.421875 L 10.171875 -3.46875 Z M 21.375 -3.46875 "/></g></g></g><g fill="#e1d8d8" fill-opacity="1"><g transform="translate(950.548377, 197.466731)"><g><path d="M 6.171875 -37.890625 L 10.171875 -37.890625 L 10.171875 0 L 6.171875 0 Z M 6.171875 -37.890625 "/></g></g></g><g fill="#e1d8d8" fill-opacity="1"><g transform="translate(990.871144, 197.466731)"><g><path d="M 22.625 0.328125 C 18.875 0.328125 15.488281 -0.5 12.46875 -2.15625 C 9.457031 -3.820312 7.09375 -6.125 5.375 -9.0625 C 3.664062 -12.007812 2.8125 -15.300781 2.8125 -18.9375 C 2.8125 -22.582031 3.664062 -25.875 5.375 -28.8125 C 7.09375 -31.757812 9.46875 -34.0625 12.5 -35.71875 C 15.53125 -37.382812 18.921875 -38.21875 22.671875 -38.21875 C 25.492188 -38.21875 28.09375 -37.742188 30.46875 -36.796875 C 32.851562 -35.859375 34.875 -34.488281 36.53125 -32.6875 L 33.984375 -30.140625 C 31.023438 -33.140625 27.289062 -34.640625 22.78125 -34.640625 C 19.789062 -34.640625 17.066406 -33.953125 14.609375 -32.578125 C 12.160156 -31.210938 10.238281 -29.335938 8.84375 -26.953125 C 7.457031 -24.566406 6.765625 -21.894531 6.765625 -18.9375 C 6.765625 -15.976562 7.457031 -13.304688 8.84375 -10.921875 C 10.238281 -8.546875 12.160156 -6.671875 14.609375 -5.296875 C 17.066406 -3.929688 19.789062 -3.25 22.78125 -3.25 C 27.332031 -3.25 31.066406 -4.765625 33.984375 -7.796875 L 36.53125 -5.25 C 34.875 -3.445312 32.84375 -2.066406 30.4375 -1.109375 C 28.039062 -0.148438 25.4375 0.328125 22.625 0.328125 Z M 22.625 0.328125 "/></g></g></g><g fill="#e1d8d8" fill-opacity="1"><g transform="translate(1053.761286, 197.466731)"><g><path d="M 6.171875 -37.890625 L 10.171875 -37.890625 L 10.171875 0 L 6.171875 0 Z M 6.171875 -37.890625 "/></g></g></g><g fill="#e1d8d8" fill-opacity="1"><g transform="translate(1094.084052, 197.466731)"><g><path d="M 22.734375 0.328125 C 18.984375 0.328125 15.582031 -0.507812 12.53125 -2.1875 C 9.476562 -3.863281 7.09375 -6.164062 5.375 -9.09375 C 3.664062 -12.019531 2.8125 -15.300781 2.8125 -18.9375 C 2.8125 -22.582031 3.664062 -25.863281 5.375 -28.78125 C 7.09375 -31.707031 9.476562 -34.007812 12.53125 -35.6875 C 15.582031 -37.375 18.984375 -38.21875 22.734375 -38.21875 C 26.484375 -38.21875 29.863281 -37.382812 32.875 -35.71875 C 35.894531 -34.0625 38.269531 -31.757812 40 -28.8125 C 41.726562 -25.875 42.59375 -22.582031 42.59375 -18.9375 C 42.59375 -15.300781 41.726562 -12.007812 40 -9.0625 C 38.269531 -6.125 35.894531 -3.820312 32.875 -2.15625 C 29.863281 -0.5 26.484375 0.328125 22.734375 0.328125 Z M 22.734375 -3.25 C 25.722656 -3.25 28.425781 -3.925781 30.84375 -5.28125 C 33.269531 -6.632812 35.164062 -8.507812 36.53125 -10.90625 C 37.90625 -13.300781 38.59375 -15.976562 38.59375 -18.9375 C 38.59375 -21.894531 37.90625 -24.570312 36.53125 -26.96875 C 35.164062 -29.375 33.269531 -31.253906 30.84375 -32.609375 C 28.425781 -33.960938 25.722656 -34.640625 22.734375 -34.640625 C 19.734375 -34.640625 17.015625 -33.960938 14.578125 -32.609375 C 12.148438 -31.253906 10.238281 -29.375 8.84375 -26.96875 C 7.457031 -24.570312 6.765625 -21.894531 6.765625 -18.9375 C 6.765625 -15.976562 7.457031 -13.300781 8.84375 -10.90625 C 10.238281 -8.507812 12.148438 -6.632812 14.578125 -5.28125 C 17.015625 -3.925781 19.734375 -3.25 22.734375 -3.25 Z M 22.734375 -3.25 "/></g></g></g><g fill="#e1d8d8" fill-opacity="1"><g transform="translate(1163.468382, 197.466731)"><g><path d="M 37.828125 -37.890625 L 37.828125 0 L 34.53125 0 L 10.171875 -30.75 L 10.171875 0 L 6.171875 0 L 6.171875 -37.890625 L 9.46875 -37.890625 L 33.875 -7.140625 L 33.875 -37.890625 Z M 37.828125 -37.890625 "/></g></g></g><g fill="#e1d8d8" fill-opacity="1"><g transform="translate(1231.445555, 197.466731)"><g><path d="M 29.9375 -10.125 L 8.828125 -10.125 L 4.28125 0 L 0.109375 0 L 17.421875 -37.890625 L 21.375 -37.890625 L 38.703125 0 L 34.484375 0 Z M 28.46875 -13.375 L 19.375 -33.71875 L 10.28125 -13.375 Z M 28.46875 -13.375 "/></g></g></g><g fill="#e1d8d8" fill-opacity="1"><g transform="translate(1294.227379, 197.466731)"><g><path d="M 6.171875 -37.890625 L 10.171875 -37.890625 L 10.171875 -3.46875 L 31.390625 -3.46875 L 31.390625 0 L 6.171875 0 Z M 6.171875 -37.890625 "/></g></g></g></svg>